<svg id="Capa_1" data-name="Capa 1" xmlns="http://www.w3.org/2000/svg" viewBox="0 0 511.86 512"><defs><style>.cls-1{fill:#fff;}</style></defs><path class="cls-1" d="M75.05,0h-60a15,15,0,0,0-15,15V76a15,15,0,0,0,30,0V30h45a15,15,0,1,0,0-30Z" transform="translate(-0.07)"/><path class="cls-1" d="M496.93,0H437a15,15,0,1,0,0,30h45V76a15,15,0,1,0,30,0V15A15,15,0,0,0,496.93,0Z" transform="translate(-0.07)"/><path class="cls-1" d="M75.05,481.86h-45v-46a15,15,0,1,0-30,0v61a15,15,0,0,0,15,15h60a15,15,0,0,0,0-30Z" transform="translate(-0.07)"/><path class="cls-1" d="M496.93,420.88a15,15,0,0,0-15,15v46H437a15,15,0,1,0,0,30h60a15,15,0,0,0,15-15v-61A15,15,0,0,0,496.93,420.88Z" transform="translate(-0.07)"/><path class="cls-1" d="M472.37,123,263.52,2a15,15,0,0,0-15,0L39.54,123a15.06,15.06,0,0,0-7.48,13s0,.06,0,.09V376a15,15,0,0,0,7.63,13.06L248.48,510a15,15,0,0,0,15,0l208.7-120.92.11-.06c4.83-3.49,7.44-6.42,7.51-12.82,0-.06,0-.12,0-.18V136A15.06,15.06,0,0,0,472.37,123ZM241,471,77.18,376.07l126.3-72.43a15,15,0,0,0-14.92-26l-126.5,72.5V161.91L241,264.68Zm15-232.28L77.16,136,256,32.33,434.84,135.94ZM450,350.12l-126.51-72.5a15,15,0,0,0-14.92,26l126.3,72.43L271,471V264.68L450,161.91V350.12Z" transform="translate(-0.07)"/></svg>